<svg width="25" height="24" viewBox="0 0 25 24" fill="none" xmlns="http://www.w3.org/2000/svg">
<g clip-path="url(#clip0_679_19841)">
<mask id="mask0_679_19841" style="mask-type:luminance" maskUnits="userSpaceOnUse" x="0" y="0" width="25" height="24">
<path d="M24.5 0H0.5V24H24.5V0Z" fill="white"/>
</mask>
<g mask="url(#mask0_679_19841)">
<path d="M12.5 24C19.1274 24 24.5 18.6274 24.5 12C24.5 5.37258 19.1274 0 12.5 0C5.87258 0 0.5 5.37258 0.5 12C0.5 18.6274 5.87258 24 12.5 24Z" fill="#F0FAF2"/>
<path d="M3.25549 13.1813C3.24494 13.156 3.2353 13.1324 3.22656 13.1107C3.23799 13.0868 3.25066 13.0608 3.2646 13.0325C3.34782 12.8641 3.47578 12.6202 3.65149 12.326C4.00342 11.7367 4.54398 10.9506 5.29628 10.1656C6.79787 8.59866 9.12976 7.04688 12.5035 7.04688C15.8772 7.04688 18.2091 8.59866 19.7107 10.1656C20.463 10.9506 21.0035 11.7367 21.3555 12.326C21.5312 12.6202 21.6591 12.8641 21.7423 13.0325C21.7563 13.0608 21.769 13.0868 21.7804 13.1107C21.7716 13.1324 21.762 13.156 21.7515 13.1813C21.682 13.3479 21.5733 13.5897 21.4192 13.8817C21.1106 14.4665 20.6226 15.2473 19.9076 16.0272C18.4854 17.5787 16.1583 19.1378 12.5035 19.1378C8.84863 19.1378 6.52151 17.5787 5.09932 16.0272C4.38437 15.2473 3.89635 14.4665 3.5877 13.8817C3.4336 13.5897 3.3249 13.3479 3.25549 13.1813ZM21.8475 12.9335C21.8475 12.9334 21.8476 12.9334 21.8475 12.9335V12.9335Z" fill="white" stroke="#223330"/>
<mask id="mask1_679_19841" style="mask-type:luminance" maskUnits="userSpaceOnUse" x="8" y="8" width="9" height="10">
<path d="M16.8601 13.0902C16.8601 12.1296 16.5431 11.1959 15.9584 10.4338C15.3736 9.6717 14.5537 9.12387 13.6258 8.87525C12.698 8.62663 11.714 8.69112 10.8266 9.05872C9.9391 9.42632 9.19773 10.0765 8.71744 10.9084C8.23714 11.7403 8.04477 12.7074 8.17015 13.6598C8.29553 14.6121 8.73166 15.4965 9.4109 16.1758C10.0901 16.855 10.9745 17.2911 11.9269 17.4165C12.8793 17.5419 13.8464 17.3495 14.6783 16.8692L12.4965 13.0902H16.8601Z" fill="white"/>
</mask>
<g mask="url(#mask1_679_19841)">
<path d="M16.8601 13.0902C16.8601 12.1296 16.5431 11.1959 15.9584 10.4338C15.3736 9.6717 14.5537 9.12387 13.6258 8.87525C12.698 8.62663 11.714 8.69112 10.8266 9.05872C9.9391 9.42632 9.19773 10.0765 8.71744 10.9084C8.23714 11.7403 8.04477 12.7074 8.17015 13.6598C8.29553 14.6121 8.73166 15.4965 9.4109 16.1758C10.0901 16.855 10.9745 17.2911 11.9269 17.4165C12.8793 17.5419 13.8464 17.3495 14.6783 16.8692L12.4965 13.0902H16.8601Z" fill="#F0FAF2" stroke="#223330" stroke-width="2" stroke-linejoin="round"/>
</g>
<path d="M8.13424 4.35938L9.22515 7.63211M16.8615 4.35938L15.7706 7.63211M22.316 7.63211L19.5887 9.81393M2.67969 7.63211L5.40697 9.81393" stroke="#223330"/>
</g>
</g>
<defs>
<clipPath id="clip0_679_19841">
<rect width="25" height="24" fill="white"/>
</clipPath>
</defs>
</svg>
