<svg width="17" height="16" viewBox="0 0 17 16" fill="none" xmlns="http://www.w3.org/2000/svg">
<path d="M8.1356 10.6198L2.8256 5.0468C2.73695 4.95381 2.6875 4.83027 2.6875 4.7018C2.6875 4.57333 2.73695 4.44979 2.8256 4.3568L2.8316 4.3508C2.87457 4.30557 2.9263 4.26955 2.98363 4.24493C3.04096 4.22032 3.1027 4.20763 3.1651 4.20763C3.22749 4.20763 3.28923 4.22032 3.34656 4.24493C3.4039 4.26955 3.45562 4.30557 3.4986 4.3508L8.4986 9.5988L13.4966 4.3508C13.5396 4.30557 13.5913 4.26955 13.6486 4.24493C13.706 4.22032 13.7677 4.20763 13.8301 4.20763C13.8925 4.20763 13.9542 4.22032 14.0116 4.24493C14.0689 4.26955 14.1206 4.30557 14.1636 4.3508L14.1696 4.3568C14.2582 4.44979 14.3077 4.57333 14.3077 4.7018C14.3077 4.83027 14.2582 4.95381 14.1696 5.0468L8.8596 10.6198C8.8129 10.6688 8.75673 10.7078 8.69451 10.7345C8.63228 10.7612 8.56529 10.7749 8.4976 10.7749C8.4299 10.7749 8.36291 10.7612 8.30068 10.7345C8.23846 10.7078 8.18229 10.6688 8.1356 10.6198Z" fill="black"/>
</svg>
