<svg width="20" height="9" viewBox="0 0 20 9" fill="none" xmlns="http://www.w3.org/2000/svg">
<path d="M0.5 4C0.223858 4 0 4.22386 0 4.5C0 4.77614 0.223858 5 0.5 5V4ZM19.8536 4.85355C20.0488 4.65829 20.0488 4.34171 19.8536 4.14645L16.6716 0.964466C16.4763 0.769204 16.1597 0.769204 15.9645 0.964466C15.7692 1.15973 15.7692 1.47631 15.9645 1.67157L18.7929 4.5L15.9645 7.32843C15.7692 7.52369 15.7692 7.84027 15.9645 8.03553C16.1597 8.2308 16.4763 8.2308 16.6716 8.03553L19.8536 4.85355ZM0.5 5H19.5V4H0.5V5Z" fill="#A9A8B2"/>
</svg>
