<svg width="20" height="36" viewBox="0 0 20 36" fill="none" xmlns="http://www.w3.org/2000/svg">
<path d="M0.5 3.5C0.223858 3.5 0 3.72386 0 4C0 4.27614 0.223858 4.5 0.5 4.5V3.5ZM19.8536 4.35355C20.0488 4.15829 20.0488 3.84171 19.8536 3.64645L16.6716 0.464466C16.4763 0.269204 16.1597 0.269204 15.9645 0.464466C15.7692 0.659728 15.7692 0.976311 15.9645 1.17157L18.7929 4L15.9645 6.82843C15.7692 7.02369 15.7692 7.34027 15.9645 7.53553C16.1597 7.7308 16.4763 7.7308 16.6716 7.53553L19.8536 4.35355ZM0.5 4.5H19.5V3.5H0.5V4.5Z" fill="#A9A8B2"/>
</svg>
