<svg width="302" height="143" viewBox="0 0 302 143" fill="none" xmlns="http://www.w3.org/2000/svg">
<path d="M30.1738 114.474C29.9337 114.474 29.739 114.669 29.739 114.909C29.739 115.149 29.9337 115.343 30.1738 115.343V114.474ZM47.003 115.216C47.1728 115.046 47.1728 114.771 47.003 114.601L44.2361 111.834C44.0663 111.665 43.791 111.665 43.6212 111.834C43.4514 112.004 43.4514 112.279 43.6212 112.449L46.0807 114.909L43.6212 117.368C43.4514 117.538 43.4514 117.813 43.6212 117.983C43.791 118.153 44.0663 118.153 44.2361 117.983L47.003 115.216ZM30.1738 115.343H46.6956V114.474H30.1738V115.343Z" fill="#A9A8B2"/>
<path d="M277.131 1.34766V1.34766C290.578 1.34766 301.479 12.2486 301.479 25.6955V51.7824C301.479 66.1899 289.799 77.8694 275.392 77.8694H18.8703C8.78506 77.8694 0.609375 86.0451 0.609375 96.1303V96.1303C0.609375 106.215 8.78504 114.391 18.8702 114.391H30.1746" stroke="#C5C4CC" stroke-width="0.869565"/>
</svg>
